<svg version="1" xmlns="http://www.w3.org/2000/svg" width="400" height="400" viewBox="0 0 300.000000 300.000000"><path d="M62.2 12.5C44.1 16.5 32 28 32 41.2 32 54.1 42.8 66.1 58.8 71c3.1 1 5.8 2.2 5.9 2.7.4 1-15 16.1-18.1 17.9-4.8 2.6 3.1 12.8 12.6 16 7.7 2.7 25.3 2.5 32.6-.3 2.8-1.2 5.4-1.8 5.6-1.4.3.4-.6 4.4-1.9 8.9-4.1 14.2-10.6 49-9.8 52.3.5 1.6 0 1.9-3.2 1.9-2 0-5.1.6-6.8 1.4-1.8.8-4.8 1.6-6.7 1.9-6.5.9-17.4 4.5-18.8 6.4-.9 1.2-1.2 3.9-1 8.5l.4 6.8h-5.8c-8.4 0-20.9 5.1-26.9 11-6 6-7.9 11.6-7.9 23.5 0 10.2.9 12 6.5 12.7 2.8.3 3 .6 3.3 4.9.3 4.6.2 4.7-4 7.1C9.4 256.1 8 258.9 8 267c0 9 1.4 13.3 5.7 17 3.3 2.9 4.1 3.2 8.7 2.8 2.8-.3 9.2-2 14.1-3.9 6.9-2.6 10.1-4.5 13.5-7.9 5.4-5.3 7-10 7.8-21.8l.5-8.2H71v9.3c0 8.5.2 9.6 2.3 11.5 2.8 2.6 5.2 2.7 14.5.6 11.4-2.6 10.6.4 11.2-43.3l.5-37.6 4.8-.3 4.7-.2v34.9c0 37 .2 39 4.6 41 3.1 1.4 16.9.3 20.6-1.6 3.3-1.6 3.7-3.1 4.1-15.3.2-8.8.4-9.5 2.2-9.5 1.8 0 2 .8 2.5 10.8.6 14.1 1.2 14.7 14.2 14.7 14 0 46.4 3.8 56.3 6.6 2.8.8 7.9 2.1 11.5 2.9 3.6.7 10.1 2.5 14.5 3.9s8.8 2.6 9.8 2.6 2.8.6 4 1.4c2.3 1.5 27.1 11.3 29.7 11.7 3 .6 6.7-1.1 7.8-3.6.7-1.4 1.2-6.3 1.2-10.8 0-6.5-.4-8.9-2-11.5-1.9-3-1.9-3.5-.5-5.5 1.8-2.6 2.1-17.3.4-21-.9-1.9-.7-3.1.5-5.5 1.9-3.7 2.2-17.8.4-21.7-.7-1.5-3-3.6-5.1-4.7-8.6-4.3-26.9-10.8-30.7-10.8h-4v-6.6c0-3.6-.4-7.4-1-8.4-1.1-2-5.9-4-9.7-4-1.3 0-3.4-.7-4.7-1.5-1.2-.8-4.5-1.8-7.2-2.1-2.7-.4-5.3-1-5.9-1.4-.5-.5-2.6-1.1-4.5-1.5l-3.6-.6-1.2-8.8c-1.7-12.6-5.9-33.1-8.9-43.9-1.4-5.1-2.4-9.5-2.1-9.7.2-.2 2.8.4 5.7 1.5 11.3 4.4 27.6 3.6 37.5-1.8 4.8-2.6 9.6-8.2 9.6-11.3 0-.8-2.2-3-4.9-4.7-5.7-3.8-15.8-14.9-14.5-16.1.5-.5 3.4-1.6 6.4-2.6 19.5-6.2 30.6-23.8 24-38.2-2.5-5.6-9.8-12.6-16.3-15.6-2.9-1.4-8.7-3.3-13.1-4.2-10.5-2.3-31.2-1.7-40.4 1.3-6.9 2.2-13.4 6.1-12.9 7.7.2.6 2.6.9 5.4.7 10.1-.7 34.3 4.7 37.3 8.3 1.9 2.3-2.6 2.9-18.1 2.2l-13.9-.5-3-3.2c-2.7-2.9-3.3-3.1-9.2-3-3.5.1-9.4-.5-13.3-1.4-9.3-2.1-27.8-2.1-37 .1-3.8.8-9.8 1.5-13.1 1.4-5.7-.2-6.5 0-9.9 3l-3.7 3.3H89.2c-17.1.1-19.5-.8-11.5-4.2 7.3-3 18.8-5.4 28.7-5.8 4.9-.2 9.1-.6 9.4-.9.9-.9-2.3-3.8-6.4-5.6-10.6-4.7-33.5-6.3-47.2-3.4zM89 16c2 1.2 1.7 1.4-7.5 4.5-17.7 5.9-25.2 11.2-26.2 18.4-.8 6 2.8 10.7 9.7 12.6 2.2.6 2.1.4-.6-1.3-5.9-3.7-8-9.4-5.4-14.3 1.4-2.4 3.2-2.4 5.5.1 4.6 5 17 6.6 36.3 4.6l8.4-.8-.7 4.8c-1.3 10-2.6 15-5 18.5-2.7 4.2-5.8 4.9-21.4 4.9-12 0-21.4-2-29-6-6.7-3.6-10-6.7-13-12.5-3.8-7.3-1.8-15 5.9-21.9 5-4.5 16.5-10.1 23.6-11.4 6.5-1.3 17.5-1.4 19.4-.2zm141.4.5c8 1.7 17.7 6 22.4 9.9 4.9 4.2 8.5 11 8.4 16.1-.1 10.8-11.2 20.7-27.1 24.1-6.9 1.4-23.5 1.9-31.4.8-4.1-.6-4.9-1.1-7.1-4.9-2.4-4.1-5.7-20.8-4.3-22.1.3-.4 5.8-.1 12.1.6 16.6 1.8 26.6.1 32.4-5.3l2.4-2.2 2 2.5c1.5 1.8 1.8 3.4 1.4 5.8-.6 3.9-2 5.8-6.1 8.4-2.7 1.8-2.8 1.9-.5 1.3 10.4-2.9 12.9-14.5 4.4-21-4.6-3.5-16.4-8.9-24.3-11.1-5.6-1.6-6.1-1.9-4.5-3.1 2.3-1.7 11.2-1.6 19.8.2zm-82.6 16.7c.7.7 1.3 4.4 1.3 8.8l.2 7.5 1-8.3c1.2-9.7 1.3-9.8 13.8-8.9 9.7.8 11.6 1.7 12.8 6.5.6 2.1 1.8 4.6 2.6 5.7 1.5 1.9 1.6 1.8 1.1-2-.7-4.9.4-6.8 3.5-6.3 2.1.3 2.5 1 3 5.8.3 3 .9 7.4 1.3 9.8.6 3.3.5 4.1-.6 3.7-.7-.3-2.6-.1-4.3.3l-3 .9 3.7 1.2c2 .7 5.1 2.8 6.8 4.7 5.2 5.9 3.4 13.6-2.6 11.4-3.6-1.4-4.2-3.4-.8-2.6 2.7.7 2.8.6 1.3-.9-.9-1-3.3-1.6-5.8-1.7-3.8 0-4.8.5-9 4.6-5.1 5-6.7 5.6-7.6 2.7-.8-2.7.3-6.8 3.2-11.9 2.8-5 1.9-5.4-2.4-1-3.4 3.6-6.3 8.8-6.3 11.3 0 1.3-.7 1.5-3.7.9l-3.8-.7 4.1 4.5c2.3 2.5 4.7 6.1 5.3 8.1 1.5 4.5 2.9 4.7 3.3.5.4-4.4 2.3-4.6 4.4-.2 1.8 3.9 6.6 7.4 9.9 7.4 3 0 6.5-2.8 6.5-5.2 0-2-.1-2-1.8-.5-2.3 2.1-5.6 2.2-7.2.2-1-1.2-.9-1.5.7-1.5 2.8 0 6.2-2.8 7.6-6.2 1.1-2.8 1.4-2.9 2.8-1.5 1.7 1.7 4.3 12.3 3.8 15.2-.2 1-2.5 3.1-5.1 4.6l-4.8 2.8-1.6-3c-.8-1.7-3-3.7-4.9-4.5-5.1-2.1-15.4-1.8-21.9.7-5.3 1.9-5.6 1.9-8.8.3-2-1.1-6.4-1.9-11.4-2.2-9.2-.5-13.3 1-16.3 5.8l-1.7 2.9-5-2.9-5.1-2.9.8-5.3c1.1-8.2 2-10.8 4-11.9 1.4-.7 1.9-.6 1.9.4 0 2.5 4 6.6 7.3 7.5l3.2.9-2.7 1.3c-2.2 1-3.4 1.1-5.4.1-1.5-.6-2.9-1-3.1-.7-1.1 1 4.7 5.6 7.1 5.6 2.9 0 8.1-4.1 10.2-8.1 2-3.9 3.4-3.6 3.4.6 0 4.9 2.4 4.5 4.1-.7.7-2.4 3.1-6 5.3-8.2l3.9-3.9-3.5.7c-3.4.6-3.5.5-4.7-3.4-1.2-4-8.6-12.9-9.7-11.7-.3.3.4 2 1.6 3.8 2.7 3.6 3.9 12.2 2 13.4-.7.4-2.8-.9-5.4-3.4-2.3-2.3-5.5-4.5-7.2-4.9-3.2-1-9.4.3-9.4 1.8 0 .6 1.1.8 2.5.4 3.3-.8 3.2.2-.3 2-3.9 2-6.2.5-6.2-4 0-4.9 2.6-8.3 8.5-11 4.8-2.2 4.9-2.3 2-2.5-1.6-.1-3.7-.2-4.6-.1-1.3.1-1.4-.7-.2-7.1.7-4 1.2-8.4 1.3-10 0-2.3.4-2.7 3-2.7 2.9 0 3 .1 3 5.2 0 4.8.1 5 1.5 3.2.8-1 1.7-3.3 2.1-5.1.8-4 2.4-5.4 7.2-6.4 6.2-1.2 16.7-1 18 .3zm-46.4 39.3c.6 1.8 0 2.1-6.4 2.9-6.3.9-13.7 4.7-20.4 10.6-3.2 2.8-6.9 5.6-8.4 6.4-3.8 1.9-9.2 3-9.2 1.8 0-1.8 16.9-16.9 21.2-19.1 7.6-3.6 22.1-5.3 23.2-2.6zm109-.5c8.8 1.3 14.6 4.5 24.1 13.2 7.8 7.2 9.6 10.5 5 9.4-5.1-1.3-7.2-2.5-14-8.3-8.2-6.9-14.4-10-21.7-11.1-3.8-.5-5.4-1.2-5.6-2.5-.4-2 1.9-2.2 12.2-.7zm-88.5 4.5c3.4 3.9 3.8 5.4 1.9 7.3-3.1 3.1-7.8-.3-7.8-5.8 0-6.1 1.5-6.5 5.9-1.5zm61.5-1.9c2 5.3-1.3 11.1-5.7 10-3.5-.8-3.5-3.7-.1-8.2 2.9-3.7 4.8-4.3 5.8-1.8zM142.8 100c3 1.3 4.7 2.9 5.6 5.2l1.4 3.3.4-3c.2-2.4 1.2-3.4 4.8-5.3 4.5-2.2 8.6-3 7.5-1.3-.3.6 1.6.7 4.7.4 4.4-.4 5.8-.1 8 1.6 4.8 3.8 4.9 11.7.2 18.7l-2.6 3.9 3.4-3.3c1.9-1.7 3.6-3.2 3.8-3.2.3 0 .5 3.3.5 7.2 0 4 .3 8.7.7 10.4.5 2.1.2 3.8-.6 5-1.3 1.8-1.6 1.7-6.2-.8-7-3.7-14-5-25.9-5-10.9 0-19.3 1.8-25.4 5.3-5.4 3.1-6.1 1.7-5.4-10.9.3-5.9.7-10.9.9-11 .1-.2 1.7 1.1 3.4 3 3.1 3.2 3.1 3.2 1.1.3-7.6-11.3-3-22.7 8.6-21.1 2.5.3 4.3.2 4.3-.4 0-1.5 2-1.2 6.8 1zm53.1 21.5c3.9 15.5 8.1 36.4 8.1 40.4 0 2.8-.3 3.1-3.2 3.1-1.7 0-5.7-.4-8.7-1-3.1-.5-7.3-1.2-9.4-1.6l-3.9-.5.6-5.2.6-5.2-1.8 4.5c-2.3 5.2-5.2 7.6-7.9 6.2-1-.5-6.3-1-11.8-1-8.8 0-10.3.2-12.2 2.1-1.7 1.5-2.3 3.2-2.3 6.4s-.4 4.3-1.5 4.3c-1.8 0-2.2-.9-2.8-6.6l-.5-4.1 5.7-2.3c15.7-6.5 31.9-14.8 32.6-16.9.3-1.1 1.2-2.1 1.9-2.1s2.3-1.1 3.6-2.5c2.3-2.4 2.3-2.7 1.1-9.1-1.2-5.7-1.1-6.7.2-7.7.8-.7 2-3 2.7-5.2 1.9-5.9 4.1-9.8 5-8.9.4.5 2.2 6.3 3.9 12.9zm-27.1 17c4.7 1.4 7.3 3.7 6 5.1-.3.3-4.3-.5-8.9-1.8-11.1-2.9-21.8-2.9-32.2 0-8 2.3-10.7 2.2-8.7-.3 1.2-1.5 8.5-4.1 13.5-4.9 6.1-.9 25.1.3 30.3 1.9zm-5.5 5.6c9.4 3.1.6 5.4-18 4.7-14.9-.5-17.1-2.3-6.7-5.3 5.6-1.7 18.8-1.3 24.7.6zm-7.8 27.4c0 4.7-.2 5-2.7 5.3-1.6.2-2.9 0-2.9-.5-1.1-8.2-.3-10.6 3.5-10.1 1.8.3 2.1 1 2.1 5.3zm-20.7.2c.2 3.3-.1 4.4-1.7 5.2-3.3 1.8-5.1.3-5.1-4.3 0-5 .6-5.8 4-5.4 2.2.3 2.5.8 2.8 4.5zm34 .6l.3 4.8-3.3-.3c-3.2-.3-3.3-.5-3.6-5.1l-.3-4.8 3.3.3c3.2.3 3.3.5 3.6 5.1zM179 168c2.1 1.1 2.2 4.2.2 7.7-2.3 4.1-4.2 2.9-4.2-2.5 0-6.2.6-7 4-5.2zm-57 4.9c0 4.1-.3 5-2.1 5.4-3.5.9-4.7-.2-4.7-4.6-.1-5.2.3-5.7 3.9-5.7 2.8 0 2.9.1 2.9 4.9zm-13.2-2.7c1 1 1.8 8.7 1 8.8-.2.1-2 .3-4 .6l-3.8.6v-4.6c0-3.2.5-4.8 1.8-5.5 2.3-1.4 3.6-1.3 5 .1zm82.8 1.9c-.3 1.7-.6 4-.6 5 0 1.2-.7 1.9-2 1.9-1.5 0-2-.7-2-2.8 0-1.5-.3-3.7-.6-5-.6-1.9-.3-2.2 2.6-2.2 3.1 0 3.2.1 2.6 3.1zm8.8-1.4c.7.8 1.2.9 5.4 1.1 1.8.2 2.2.8 2.2 3.3 0 5.1-1.5 6.9-5.3 6.2-1.7-.3-3.4-.7-3.6-.9-.7-.6-1.9-8.9-1.5-9.6.6-1 1.9-1 2.8-.1zm-103.9 6v4.8H93c-3.5 0-3.5 0-3.5-4.5 0-4.2.2-4.5 3-5.1 1.7-.3 3.2-.4 3.5-.3.3.1.5 2.4.5 5.1zm-12.7-.4c.2 1-.3 1.7-1.2 1.7-.9 0-1.6.4-1.6 1 0 .5.7 1 1.5 1s1.5.6 1.5 1.3c0 2-2.2 3.7-4.7 3.7-2.1 0-2.3-.5-2.3-4.5 0-3.1.5-4.7 1.8-5.4 2.4-1.5 4.6-.9 5 1.2zm135.6-1.7c1.1.4 1.6 1.9 1.6 4.9 0 5.1-.8 5.9-4.4 4.5-2.3-.8-2.6-1.5-2.6-5.5 0-4.7 1.2-5.5 5.4-3.9zM71 182c0 4.3-.3 5-2 5s-2-.7-2-4.3c0-4.6.5-5.7 2.7-5.7.9 0 1.3 1.5 1.3 5zm161.8-3.8c1.3 1.3 1.7 8.4.4 9.1-.4.3-1.9.3-3.5 0-2.5-.5-2.7-.9-2.7-5.4 0-4.4.2-4.9 2.3-4.9 1.3 0 2.8.5 3.5 1.2zm-52.5 4c2.7 1.3 4.4 3.2 5.8 6.1 1.7 3.8 1.9 6.9 1.9 36.1v31.9l-7.8-.5c-4.3-.2-8.4-.8-9-1.2-.8-.5-1.2-4.2-1.2-11.2 0-9.7-.1-10.4-2-10.4-1.8 0-2 .8-2.2 10.7l-.3 10.8-6.7.3c-11.8.5-10.9 3.2-10.6-34.3.3-30.9.4-32.5 2.4-35.2 3.5-4.9 7.1-6 17.1-5.5 6 .3 10 1.1 12.6 2.4zM61.7 185c0 3.1-.4 5-1.1 5-.6 0-2.1.3-3.3.6-2.2.6-2.3.3-2.3-4.4 0-5.2.1-5.4 5.6-6.1.6 0 1 2 1.1 4.9zm83.9-3.7c.5 1.5.9 9.4.6 14.9-.2 3.4-.5 3.8-2.9 3.8-1.6 0-4.5.3-6.5.6-3.6.6-3.8.8-3.8 4.5v3.9h5.9c4.4 0 6 .4 6.5 1.6.8 2.2.7 14.7-.2 16-.4.7-3.3 1.5-6.4 1.9l-5.8.7v12.4c0 6.7-.4 12.5-.8 12.8-.5.3-4.6.8-9 1.2l-8.2.7v-36.7c0-29.6.3-36.8 1.3-37.2 1.4-.5 17.8-2 25-2.3 2.2 0 4 .4 4.3 1.2zm97.8-.7c1.2.4 1.6 2 1.6 5.5 0 4.1-.3 4.9-1.8 4.9-2.8 0-4.2-2-4.2-6 0-4.8.9-5.7 4.4-4.4zm-34.8 4.5c3.2.6 7.5 2 9.4 3.1 2.2 1.3 4.4 1.8 6.1 1.4 3.6-.7 13.3 1.9 18.6 4.9 2.7 1.6 4.8 3.9 6.2 6.8 2 4.1 2.1 5.9 2.1 36.5V270h-2.2c-2.5 0-12.5-3-14.5-4.3-1-.6-1.3-7.6-1.3-29.3 0-17.9-.4-28.4-1-28.4s-1.1 10.4-1.2 27.7l-.3 27.8-5-.2c-2.7 0-6.8-.7-9-1.5l-4-1.3-.3-28.8c-.1-18-.6-28.7-1.2-28.7s-1 10.3-1 27.9c0 23.6-.2 28-1.5 28.4-2.2.9-15.6-1.9-16.6-3.5-.5-.7-.8-15.3-.7-32.3.3-33.5.6-35.2 5.7-38 3.2-1.7 4.2-1.8 11.7-.4zM92.8 222.5c.1 19.7-.2 36.3-.6 36.7-.9.9-11.4 3.7-13.9 3.8-1 0-1.3-3.1-1.3-12.3 0-6.8-.2-12.6-.5-12.9-.3-.3-3.3.1-6.5.9-7.4 1.9-10.5 1.2-13-3-1.9-2.9-2-4.8-1.8-21.7l.3-18.5 7.2-2.5c4-1.3 7.6-2.1 8-1.6.4.4 1 6.7 1.3 14 .5 13.3.5 13.3 2.8 12.5 2.1-.8 2.2-1.2 2.2-14.8 0-15.8-1-13.9 8.5-16 7.5-1.7 7-4.5 7.3 35.4zm-44.3-21.1c2.9 2.9 4.1 12.5 3 22.5-.5 3.6-.7 7.7-.6 9.1.1 1.4.4 8.1.7 14.9.8 19.3-1.9 24-17.6 30-11.3 4.3-12.4 4.5-15.8 2.7-3.6-1.9-4.5-4.9-4-14.6l.3-6.5 4.9-2.3c2.7-1.3 6.1-2.6 7.7-2.9 2.6-.5 3-.2 3.5 2.6.5 2.2 1.2 3.1 2.3 2.9 1.2-.2 1.7-1.7 1.9-6.1l.3-5.7-4 1.6c-6.2 2.4-7.1 1.6-7.1-6.3 0-4.6.5-7.6 1.6-9.1 1.9-2.7 1.7-2.7-4.2-.2-7.2 3.1-7.8 2.5-7.2-7.8.8-14.4 5.2-19.5 21.2-25.3 7-2.4 10.2-2.3 13.1.5zm221.1 2.6c18.1 7.2 16.4 5.6 16.4 16 0 10.2-.1 10.2-7.1 7-6.1-2.7-6.9-2.6-6.9 1.5 0 3.4.3 3.7 6.5 6.5l6.5 2.9v8.5c0 4.7-.4 8.7-.9 9-.5.4-3-.3-5.6-1.4-2.6-1.1-5.1-2-5.6-2s-.9 1.7-.9 3.9c0 3.8.1 3.9 5.8 6.1 3.1 1.3 6.3 2.8 7 3.3.8.6 1.2 3.9 1.2 9.8 0 6.5-.3 8.9-1.2 8.9-.7-.1-7.8-2.7-15.8-5.9l-14.5-5.8-.3-35.4c-.1-19.5 0-36 .3-36.6.7-1.9 1.6-1.7 15.1 3.7z"/><path d="M149.2 64c0 5 .1 5.2.9 2.3.6-1.9.5-4 0-5.5-.8-1.8-1-1.2-.9 3.2zM125.4 105.5c-1.5 2.4-1.5 2.8 0 7 2.1 5.5 6.9 9.7 10.5 9.3 6.1-.7 2.1-12.5-5-15-3.1-1.1-3.7-2.3-1.6-3.1.7-.3.5-.6-.5-.6-1-.1-2.5 1-3.4 2.4zM169.4 104.1c1.6 1 1.4 1.3-2.3 3-4.8 2.1-8.3 7.1-7.9 11.4.8 8.8 14.8-1.1 14.8-10.4 0-2.4-2.6-5.1-4.8-5.1-1.5.1-1.5.2.2 1.1zM166.7 197.6c-.4.4-.7 4.3-.7 8.6 0 7.2.2 7.8 2 7.8 2 0 2.1-.5 1.8-8.2-.3-7.5-1.2-10-3.1-8.2zM32.3 220.7c-.7.2-1.3 2.2-1.3 4.3 0 2.3-.7 4.6-1.7 5.6-1.7 1.7-1.7 1.8.2 1 1.1-.5 2.8-1.1 3.8-1.3 1.3-.4 1.7-1.6 1.7-5.4 0-4.8-.3-5.2-2.7-4.2z"/></svg>